<?xml version="1.0" encoding="UTF-8"?>
<!DOCTYPE svg PUBLIC "-//W3C//DTD SVG 1.1//EN" "http://www.w3.org/Graphics/SVG/1.1/DTD/svg11.dtd">
<svg version="1.1" xmlns="http://www.w3.org/2000/svg" xmlns:xlink="http://www.w3.org/1999/xlink" x="0" y="0" width="60" height="54" viewBox="0, 0, 60, 54">
  <g id="Layer_1">
    <path d="M-0,-0 L60,-0 L60,54 L-0,54 L-0,-0 z" fill="#FFFFFF"/>
    <path d="M60,0 L60,54 L0,54 L0,0 L60,0 z M45.364,11.739 C37.65,11.739 31.397,17.951 31.397,25.612 L31.397,36.711 C31.397,39.776 33.898,42.26 36.984,42.26 L42.571,42.26 C45.656,42.26 48.158,39.776 48.158,36.711 L48.158,31.162 C48.158,28.096 45.656,25.612 42.571,25.612 L36.984,25.612 C36.984,21.016 40.736,17.288 45.364,17.288 C46.907,17.288 48.158,16.047 48.158,14.514 C48.158,12.982 46.907,11.739 45.364,11.739 z M25.809,11.739 C18.096,11.739 11.842,17.951 11.842,25.612 L11.842,36.711 C11.842,39.776 14.343,42.26 17.429,42.26 L23.016,42.26 C26.102,42.26 28.603,39.776 28.603,36.711 L28.603,31.162 C28.603,28.096 26.102,25.612 23.016,25.612 L17.429,25.612 C17.429,21.016 21.182,17.288 25.809,17.288 C27.352,17.288 28.603,16.047 28.603,14.514 C28.603,12.982 27.352,11.739 25.809,11.739 z" fill="#1489CD"/>
  </g>
</svg>
